<?xml version="1.0" encoding="UTF-8" standalone="no"?>
<!-- Created with Inkscape (http://www.inkscape.org/) -->

<svg
   xmlns:dc="http://purl.org/dc/elements/1.1/"
   xmlns:cc="http://creativecommons.org/ns#"
   xmlns:rdf="http://www.w3.org/1999/02/22-rdf-syntax-ns#"
   xmlns:svg="http://www.w3.org/2000/svg"
   xmlns="http://www.w3.org/2000/svg"
   xmlns:sodipodi="http://sodipodi.sourceforge.net/DTD/sodipodi-0.dtd"
   xmlns:inkscape="http://www.inkscape.org/namespaces/inkscape"
   width="200"
   height="200"
   viewBox="0 0 52.916666 52.916666"
   version="1.1"
   id="svg8"
   inkscape:version="0.92.4 (f8dce91, 2019-08-02)"
   sodipodi:docname="heart.svg"
   inkscape:export-filename="/home/mikel/workspace/love/touch-effects/assets/heart.png"
   inkscape:export-xdpi="96"
   inkscape:export-ydpi="96">
  <defs
     id="defs2" />
  <sodipodi:namedview
     id="base"
     pagecolor="#ffffff"
     bordercolor="#666666"
     borderopacity="1.0"
     inkscape:pageopacity="0.0"
     inkscape:pageshadow="2"
     inkscape:zoom="3.959798"
     inkscape:cx="94.295881"
     inkscape:cy="149.76167"
     inkscape:document-units="px"
     inkscape:current-layer="layer1"
     showgrid="false"
     units="px"
     inkscape:window-width="1920"
     inkscape:window-height="1009"
     inkscape:window-x="0"
     inkscape:window-y="34"
     inkscape:window-maximized="1" />
  <metadata
     id="metadata5">
    <rdf:RDF>
      <cc:Work
         rdf:about="">
        <dc:format>image/svg+xml</dc:format>
        <dc:type
           rdf:resource="http://purl.org/dc/dcmitype/StillImage" />
        <dc:title></dc:title>
      </cc:Work>
    </rdf:RDF>
  </metadata>
  <g
     inkscape:label="Layer 1"
     inkscape:groupmode="layer"
     id="layer1"
     transform="translate(0,-244.08334)">
    <path
       style="fill:#000000;stroke:#000000;stroke-width:0.15119047;stroke-opacity:1"
       d="m 24.175233,295.617 c -2.968874,-2.12195 -5.973783,-4.48022 -8.904996,-6.98869 -2.321801,-1.98695 -7.9075701,-7.63228 -9.3688875,-9.46879 -3.5328232,-4.43987 -5.78707055,-8.92076 -5.72750585,-11.38488 0.0124593,-0.51543 -9.74e-6,-2.69198 0.0326837,-2.44252 0.0326934,0.24947 0.15053423,2.51458 0.20147605,2.63931 0.0509418,0.12473 0.11289574,0.45894 0.13767535,0.74269 0.0247796,0.28375 0.0992372,0.5559 0.16546136,0.60476 0.0662241,0.0489 0.13778131,0.24852 0.15901597,0.44367 0.0212346,0.19515 0.24658876,0.87551 0.50078706,1.51191 2.5536102,6.3931 10.6798949,15.03007 21.8953549,23.27133 3.053489,2.24374 3.083735,2.26088 3.549247,2.01175 0.609726,-0.32631 5.213415,-3.74691 7.2606,-5.39471 6.315967,-5.08379 11.670464,-10.52442 14.756548,-14.99395 1.498287,-2.16995 3.100333,-5.36342 3.213815,-6.40633 0.02123,-0.19515 0.08786,-0.39175 0.148064,-0.4369 0.0602,-0.0451 0.207175,-0.62345 0.326611,-1.28512 l 0.232771,-3.05512 -0.0021,2.78923 c 0.02646,1.82759 -1.354322,5.14413 -3.422901,8.22157 -4.063466,6.04525 -11.449865,13.08448 -20.587574,19.61996 -2.281253,1.63159 -2.284564,1.63159 -4.566197,9e-4 z M 0.22557282,262.52857 c 0.044245,-1.90829 0.41068449,-3.44115 1.33746528,-5.5948 1.7357612,-4.03355 5.6707134,-7.21459 9.0958899,-7.35318 l 3.32619,-0.0271 -3.174999,0.18615 c -4.7530383,0.93391 -8.0196257,4.07389 -9.6604353,9.286 -0.21807745,0.69273 -0.35314623,1.32967 -0.30015285,1.41541 0.0529934,0.0858 0.0195107,0.20339 -0.0744059,0.26144 -0.0939166,0.058 -0.19521893,0.44164 -0.2251162,0.85244 -0.0298973,0.4108 -0.0958338,0.84896 -0.1465256,0.97369 -0.0506918,0.12473 -0.16229042,2.38774 -0.19695584,2.80351 -0.0346654,0.41577 -0.003126,-1.84727 0.0190456,-2.80351 z m 52.41980118,0.87827 c -0.0171,-0.47323 -0.08745,-0.89525 -0.15633,-0.93782 -0.06888,-0.0426 -0.133304,-0.43155 -0.143165,-0.86439 -0.0099,-0.43284 -0.09829,-0.83665 -0.196511,-0.89736 -0.09822,-0.0607 -0.136959,-0.17772 -0.08608,-0.26004 0.125751,-0.20347 -0.514226,-2.29562 -1.09115,-3.56708 -0.995122,-2.19312 -2.624878,-4.14116 -4.505341,-5.38523 -1.158517,-0.76644 -2.830928,-1.50341 -3.591821,-1.58277 -0.256326,-0.0267 -0.5681,-0.0876 -0.692832,-0.13519 -0.124732,-0.0476 -3.001134,-0.18485 -3.250598,-0.22348 -0.249465,-0.0386 2.660951,0.0156 3.326193,0.0389 2.711553,0.0951 5.924131,2.19922 7.943866,5.20282 1.505605,2.23903 2.613234,5.8037 2.525561,8.12798 -0.03377,0.89519 0.0475,2.63531 0.02679,2.06227 z m -26.565018,-4.99643 c -0.919336,-1.93764 -2.756807,-4.23452 -4.509212,-5.63662 -1.967906,-1.57451 -4.177254,-2.60175 -6.50374,-3.02392 l -1.082286,-0.19639 0.929015,-0.0136 c 2.37838,-0.0349 6.265166,2.00768 8.524694,4.47996 0.943598,1.03245 2.17163,2.74067 2.611663,3.63288 0.350447,0.71057 0.49232,0.78855 0.632286,0.34756 0.15827,-0.49867 1.48954,-2.4461 2.422798,-3.54416 2.304891,-2.71192 6.361474,-4.95348 8.896958,-4.91624 l 0.929014,0.0136 -1.082287,0.19639 c -2.321343,0.42123 -4.542271,1.45227 -6.478587,3.0076 -1.768073,1.42019 -3.63931,3.75152 -4.534489,5.64943 -0.16624,0.35245 -0.336274,0.64082 -0.377851,0.64082 -0.04158,0 -0.211667,-0.28679 -0.377976,-0.63731 z"
       id="path826"
       inkscape:connector-curvature="0"
       sodipodi:nodetypes="cssscsscssssssccsccsccccsccccccssscccccccccccccccccccccccccccccscsc" />
    <path
       style="opacity:1;fill:#ffffff;fill-opacity:1;stroke:none;stroke-width:0.25253814;stroke-opacity:1"
       d="M 98.076553,197.37967 C 96.269959,196.28553 91.806398,193.07587 84.24902,187.43656 57.132982,167.20256 33.55413,144.83287 19.331658,125.84824 11.4962,115.38922 6.1710471,105.68915 3.9427738,97.816511 3.5692987,96.497 3.1438156,95.266144 2.9972557,95.081278 2.7267423,94.740061 2.3182975,92.608427 1.7793489,88.725138 1.3958712,85.962066 1.3920093,74.103418 1.7736742,71.300007 1.9344068,70.119391 2.2365237,67.912912 2.4450451,66.396721 2.6535664,64.880528 2.9804761,63.460001 3.171511,63.239995 3.362546,63.019986 3.5812584,62.158126 3.6575388,61.324751 3.9315371,58.331272 5.9970523,52.319852 8.5167554,47.182615 14.937617,34.091597 24.838663,25.811305 38.105739,22.43721 c 1.93897,-0.493121 3.809596,-0.71063 8.63366,-1.003888 l 6.15838,-0.374373 3.3118,0.642065 c 7.959068,1.543039 14.171132,4.027392 20.460039,8.182457 8.702148,5.749487 16.093513,14.073845 21.358509,24.054539 0.860925,1.632028 1.717969,2.967323 1.904544,2.967323 0.452109,0 1.105219,-0.958885 2.365709,-3.473278 2.04427,-4.07786 4.83938,-8.149645 8.63232,-12.575116 6.91378,-8.066776 15.83082,-14.155674 25.236,-17.232097 3.15644,-1.032468 4.07805,-1.262856 7.81963,-1.954786 3.12319,-0.577572 3.19292,-0.579267 8.9651,-0.217994 6.38164,0.399418 10.45995,1.084539 13.40499,2.251923 10.17622,4.033754 18.28176,11.112529 23.83633,20.816896 2.7175,4.747729 6.08394,13.978438 6.12838,16.80387 0.0109,0.694479 0.17793,1.445861 0.37112,1.669736 0.38012,0.440485 0.83065,2.765669 0.85084,4.391179 0.007,0.555584 0.18222,1.464721 0.38959,2.020305 0.20738,0.555584 0.53314,2.940652 0.72393,5.300154 0.31466,3.891474 0.30287,4.846215 -0.12695,10.277464 -0.46503,5.876237 -0.89753,8.585958 -1.62037,10.151993 -0.19976,0.432792 -0.53321,1.536977 -0.741,2.453749 -1.28432,5.666469 -7.62466,17.553449 -14.08312,26.403239 -13.96357,19.13379 -37.40213,41.6686 -64.73256,62.23658 -11.98871,9.0223 -16.38677,12.09754 -17.30136,12.09754 -0.226059,0 -1.114673,-0.42616 -1.974697,-0.94702 z"
       id="path847"
       inkscape:connector-curvature="0"
       transform="matrix(0.26458333,0,0,0.26458333,0,244.08334)" />
    <path
       style="opacity:1;fill:#26ffff;fill-opacity:1;stroke:none;stroke-width:0.25253814;stroke-opacity:1"
       d="M 98.144857,197.42381 C 96.128444,196.21038 91.094255,192.59222 83.76504,187.08877 51.179658,162.62066 25.450301,136.89287 12.28868,115.61678 9.1671893,110.57081 5.8660482,103.77345 4.5887623,99.761926 4.0048396,97.92802 3.3170881,95.916162 3.0604258,95.29113 2.6093481,94.192652 2.3528287,92.87209 1.7604527,88.598869 1.3913604,85.93635 1.3995328,73.754104 1.7721424,71.173738 1.932597,70.06257 2.2290949,67.93753 2.4310266,66.451429 2.6329583,64.965328 2.9616986,63.48798 3.1615607,63.168433 3.3614227,62.848886 3.5871339,61.962409 3.6631408,61.198481 3.9520647,58.294583 6.0285653,52.283623 8.5049571,47.182615 14.766755,34.284216 24.777444,25.890206 37.993405,22.45641 c 1.863633,-0.484212 3.772692,-0.709835 8.609798,-1.017551 l 6.215208,-0.395385 3.351484,0.649802 c 6.0126,1.165753 10.037593,2.496532 14.840235,4.90661 10.975191,5.507609 20.632343,15.229151 26.883561,27.06281 1.472693,2.787831 1.947957,3.403532 2.407819,3.11932 0.14844,-0.09174 0.66981,-0.96093 1.1586,-1.931535 5.08557,-10.098606 13.07917,-19.212213 21.95342,-25.029375 6.48924,-4.253767 13.00115,-6.811118 20.996,-8.245527 2.69749,-0.483975 3.04563,-0.489861 8.46003,-0.143048 9.05814,0.580209 11.68859,1.193628 17.45121,4.069616 8.37903,4.181773 15.0146,10.532432 19.87198,19.018734 2.6364,4.606045 6.03294,13.82746 6.1337,16.65264 0.0228,0.638759 0.23919,1.55913 0.48092,2.045266 0.24852,0.499821 0.54796,1.99965 0.68911,3.451714 0.13729,1.412306 0.36572,2.784765 0.50762,3.04991 0.3117,0.582414 0.4868,1.96184 0.77755,6.125282 0.37914,5.429212 -0.76087,17.221233 -1.87991,19.445437 -0.1747,0.34724 -0.54873,1.551496 -0.83117,2.676126 -1.19024,4.739274 -6.25589,14.737054 -11.22674,22.157564 -11.34809,16.94046 -34.40643,40.25305 -58.77865,59.42679 -8.52424,6.70605 -23.07872,17.43008 -24.9256,18.36566 -1.11147,0.56304 -1.287181,0.53409 -2.994723,-0.49346 z"
       id="path849"
       inkscape:connector-curvature="0"
       transform="matrix(0.26458333,0,0,0.26458333,0,244.08334)" />
  </g>
</svg>
